<svg width="86" height="85" viewBox="0 0 86 85" fill="none" xmlns="http://www.w3.org/2000/svg">
<rect width="74" height="74" rx="5" fill="#DD1344"/>
<path d="M51.5815 34.992H40.3815V29.68C40.3815 28.7413 39.8482 28.272 38.7815 28.272H36.4775C35.4108 28.272 34.8775 28.7413 34.8775 29.68V53.232C34.8775 54.1707 35.4108 54.64 36.4775 54.64H38.7815C39.8482 54.64 40.3815 54.1707 40.3815 53.232V46.384H37.1815V39.28H51.5815V54.064C51.5815 59.3547 48.4455 62 42.1735 62H33.0855C26.8135 62 23.6775 59.3547 23.6775 54.064V28.848C23.6775 23.5573 26.8135 20.912 33.0855 20.912H42.1735C48.4455 20.912 51.5815 23.5573 51.5815 28.848V34.992ZM83.644 34.992H72.444V29.68C72.444 28.7413 71.9107 28.272 70.844 28.272H68.54C67.4733 28.272 66.94 28.7413 66.94 29.68V53.232C66.94 54.1707 67.4733 54.64 68.54 54.64H70.844C71.9107 54.64 72.444 54.1707 72.444 53.232V46.384H69.244V39.28H83.644V54.064C83.644 59.3547 80.508 62 74.236 62H65.148C58.876 62 55.74 59.3547 55.74 54.064V28.848C55.74 23.5573 58.876 20.912 65.148 20.912H74.236C80.508 20.912 83.644 23.5573 83.644 28.848V34.992ZM33.386 70.872H29.186V68.88C29.186 68.528 28.986 68.352 28.586 68.352H27.722C27.322 68.352 27.122 68.528 27.122 68.88V77.712C27.122 78.064 27.322 78.24 27.722 78.24H28.586C28.986 78.24 29.186 78.064 29.186 77.712V75.144H27.986V72.48H33.386V78.024C33.386 80.008 32.21 81 29.858 81H26.45C24.098 81 22.922 80.008 22.922 78.024V68.568C22.922 66.584 24.098 65.592 26.45 65.592H29.858C32.21 65.592 33.386 66.584 33.386 68.568V70.872ZM40.6335 69.024H44.6415V81H40.5615V79.704C40.2575 80.568 39.5535 81 38.4495 81H38.0175C35.8895 81 34.8255 80.008 34.8255 78.024V72C34.8255 70.016 35.8895 69.024 38.0175 69.024H38.4495C39.6815 69.024 40.4095 69.536 40.6335 70.56V69.024ZM39.5055 78H39.9135C40.3455 78 40.5615 77.76 40.5615 77.28V72.744C40.5615 72.264 40.3455 72.024 39.9135 72.024H39.5055C39.1055 72.024 38.9055 72.2 38.9055 72.552V77.472C38.9055 77.824 39.1055 78 39.5055 78ZM58.4778 69.024H58.9098C61.0378 69.024 62.1018 70.016 62.1018 72V81H58.0218V72.552C58.0218 72.2 57.8218 72.024 57.4218 72.024H57.0138C56.5818 72.024 56.3658 72.264 56.3658 72.744V81H52.2858V72.552C52.2858 72.2 52.0858 72.024 51.6858 72.024H51.2778C50.8458 72.024 50.6298 72.264 50.6298 72.744V81H46.5498V69.024H50.5578V70.56C50.7818 69.536 51.5098 69.024 52.7418 69.024H53.1738C54.6618 69.024 55.6378 69.528 56.1018 70.536C56.2298 70.072 56.5098 69.704 56.9418 69.432C57.3738 69.16 57.8858 69.024 58.4778 69.024ZM67.1816 69.024H70.1096C72.4616 69.024 73.6376 70.016 73.6376 72V76.08H67.5176V77.664C67.5176 78.016 67.7176 78.192 68.1176 78.192H69.1736C69.5736 78.192 69.7736 78 69.7736 77.616V76.944H73.6376V78.024C73.6376 80.008 72.4616 81 70.1096 81H67.1816C64.8296 81 63.6536 80.008 63.6536 78.024V72C63.6536 70.016 64.8296 69.024 67.1816 69.024ZM67.5176 73.872H69.7736V72.36C69.7736 72.008 69.5736 71.832 69.1736 71.832H68.1176C67.7176 71.832 67.5176 72.008 67.5176 72.36V73.872ZM80.3505 77.832V76.872C80.3505 76.52 80.1505 76.344 79.7505 76.344H78.2865C75.9825 76.344 74.8305 75.36 74.8305 73.392V72C74.8305 70.016 76.0065 69.024 78.3585 69.024H80.5905C82.9425 69.024 84.1185 70.016 84.1185 72V73.008H80.2305V72.192C80.2305 71.84 80.0305 71.664 79.6305 71.664H79.3905C78.9905 71.664 78.7905 71.84 78.7905 72.192V73.248C78.7905 73.6 78.9905 73.776 79.3905 73.776H80.8545C82.0865 73.776 82.9665 74.032 83.4945 74.544C84.0385 75.04 84.3105 75.76 84.3105 76.704V78.024C84.3105 80.008 83.1345 81 80.7825 81H78.4305C76.0785 81 74.9025 80.008 74.9025 78.024V77.04H78.8625V77.832C78.8625 78.184 79.0625 78.36 79.4625 78.36H79.7505C80.1505 78.36 80.3505 78.184 80.3505 77.832Z" fill="white"/>
</svg>
