<svg width="32" height="32" viewBox="0 0 32 32" fill="none" xmlns="http://www.w3.org/2000/svg">
<path fill-rule="evenodd" clip-rule="evenodd" d="M10.6663 4.58301C7.30661 4.58301 4.58301 7.30661 4.58301 10.6663C4.58301 12.8203 5.70248 14.7128 7.39135 15.7938C3.43009 17.1534 0.583008 20.9109 0.583008 25.3333V26.6667C0.583008 27.0809 0.918794 27.4167 1.33301 27.4167C1.74722 27.4167 2.08301 27.0809 2.08301 26.6667V25.3333C2.08301 20.5929 5.9259 16.75 10.6663 16.75C15.4068 16.75 19.2497 20.5929 19.2497 25.3333V26.6667C19.2497 27.0809 19.5855 27.4167 19.9997 27.4167C20.4139 27.4167 20.7497 27.0809 20.7497 26.6667V25.3333C20.7497 20.9109 17.9026 17.1534 13.9413 15.7938C15.6302 14.7128 16.7497 12.8203 16.7497 10.6663C16.7497 7.3066 14.026 4.58301 10.6663 4.58301ZM6.08301 10.6663C6.08301 8.13503 8.13503 6.08301 10.6663 6.08301C13.1976 6.08301 15.2497 8.13504 15.2497 10.6663C15.2497 13.1976 13.1976 15.2497 10.6663 15.2497C8.13504 15.2497 6.08301 13.1976 6.08301 10.6663ZM26.6665 8.58301C27.0807 8.58301 27.4165 8.91879 27.4165 9.33301V12.583H30.6665C31.0807 12.583 31.4165 12.9188 31.4165 13.333C31.4165 13.7472 31.0807 14.083 30.6665 14.083H27.4165V17.333C27.4165 17.7472 27.0807 18.083 26.6665 18.083C26.2523 18.083 25.9165 17.7472 25.9165 17.333V14.083H22.6665C22.2523 14.083 21.9165 13.7472 21.9165 13.333C21.9165 12.9188 22.2523 12.583 22.6665 12.583H25.9165V9.33301C25.9165 8.91879 26.2523 8.58301 26.6665 8.58301Z" fill="#BBBBBB"/>
</svg>
