<svg width="32" height="32" viewBox="0 0 32 32" fill="none" xmlns="http://www.w3.org/2000/svg">
<path d="M18.3067 28.0003C18.0723 28.4045 17.7359 28.7399 17.3309 28.973C16.9261 29.2062 16.4672 29.329 16 29.329C15.5328 29.329 15.0739 29.2062 14.6691 28.973C14.2643 28.7399 13.9277 28.4045 13.6933 28.0003M24 11.2003C24 8.93714 23.1572 6.76666 21.6568 5.16635C20.1565 3.56603 18.1217 2.66699 16 2.66699C13.8783 2.66699 11.8434 3.56603 10.3431 5.16635C8.84285 6.76666 8 8.93714 8 11.2003C8 21.1559 4 24.0003 4 24.0003H28C28 24.0003 24 21.1559 24 11.2003Z" stroke="#BBBBBB" stroke-width="1.5" stroke-linecap="round" stroke-linejoin="round"/>
<circle cx="24" cy="5" r="3" fill="#FBFF12"/>
</svg>
