<svg width="33" height="40" viewBox="0 0 33 40" fill="none" xmlns="http://www.w3.org/2000/svg">
<g clip-path="url(#clip0_35_2768)">
<path d="M8.5002 5.6C8.5002 5.38783 8.58448 5.18434 8.73451 5.03431C8.88454 4.88429 9.08802 4.8 9.3002 4.8H20.5002C20.7124 4.8 20.9159 4.88429 21.0659 5.03431C21.2159 5.18434 21.3002 5.38783 21.3002 5.6C21.3002 5.81217 21.2159 6.01566 21.0659 6.16568C20.9159 6.31571 20.7124 6.4 20.5002 6.4H9.3002C9.08802 6.4 8.88454 6.31571 8.73451 6.16568C8.58448 6.01566 8.5002 5.81217 8.5002 5.6ZM17.3002 9.6C17.088 9.6 16.8845 9.68428 16.7345 9.83431C16.5845 9.98434 16.5002 10.1878 16.5002 10.4C16.5002 10.6122 16.5845 10.8157 16.7345 10.9657C16.8845 11.1157 17.088 11.2 17.3002 11.2H20.5002C20.7124 11.2 20.9159 11.1157 21.0659 10.9657C21.2159 10.8157 21.3002 10.6122 21.3002 10.4C21.3002 10.1878 21.2159 9.98434 21.0659 9.83431C20.9159 9.68428 20.7124 9.6 20.5002 9.6H17.3002ZM16.5002 15.2C16.5002 14.9878 16.5845 14.7843 16.7345 14.6343C16.8845 14.4843 17.088 14.4 17.3002 14.4H20.5002C20.7124 14.4 20.9159 14.4843 21.0659 14.6343C21.2159 14.7843 21.3002 14.9878 21.3002 15.2C21.3002 15.4122 21.2159 15.6157 21.0659 15.7657C20.9159 15.9157 20.7124 16 20.5002 16H17.3002C17.088 16 16.8845 15.9157 16.7345 15.7657C16.5845 15.6157 16.5002 15.4122 16.5002 15.2ZM9.3002 9.6C9.08802 9.6 8.88454 9.68428 8.73451 9.83431C8.58448 9.98434 8.5002 10.1878 8.5002 10.4V15.2C8.5002 15.4122 8.58448 15.6157 8.73451 15.7657C8.88454 15.9157 9.08802 16 9.3002 16H14.1002C14.3124 16 14.5159 15.9157 14.6659 15.7657C14.8159 15.6157 14.9002 15.4122 14.9002 15.2V10.4C14.9002 10.1878 14.8159 9.98434 14.6659 9.83431C14.5159 9.68428 14.3124 9.6 14.1002 9.6H9.3002ZM10.1002 14.4V11.2H13.3002V14.4H10.1002ZM3.7002 3.2C3.7002 2.35131 4.03734 1.53737 4.63745 0.937258C5.23757 0.337142 6.0515 0 6.9002 0H22.9002C23.7489 0 24.5628 0.337142 25.1629 0.937258C25.7631 1.53737 26.1002 2.35131 26.1002 3.2V4.8C26.9489 4.8 27.7628 5.13714 28.3629 5.73726C28.9631 6.33737 29.3002 7.15131 29.3002 8V16.8C29.3002 17.8609 28.8788 18.8783 28.1286 19.6284C27.3785 20.3786 26.3611 20.8 25.3002 20.8H7.7002C6.63933 20.8 5.62191 20.3786 4.87177 19.6284C4.12162 18.8783 3.7002 17.8609 3.7002 16.8V3.2ZM24.5002 3.2C24.5002 2.77565 24.3316 2.36869 24.0316 2.06863C23.7315 1.76857 23.3245 1.6 22.9002 1.6H6.9002C6.47585 1.6 6.06888 1.76857 5.76882 2.06863C5.46877 2.36869 5.3002 2.77565 5.3002 3.2V16.8C5.3002 17.4365 5.55305 18.047 6.00314 18.4971C6.45323 18.9471 7.06368 19.2 7.7002 19.2H25.3002C25.9367 19.2 26.5472 18.9471 26.9973 18.4971C27.4473 18.047 27.7002 17.4365 27.7002 16.8V8C27.7002 7.57565 27.5316 7.16869 27.2316 6.86863C26.9315 6.56857 26.5245 6.4 26.1002 6.4V16.8C26.1002 17.0122 26.0159 17.2157 25.8659 17.3657C25.7159 17.5157 25.5124 17.6 25.3002 17.6C25.088 17.6 24.8845 17.5157 24.7345 17.3657C24.5845 17.2157 24.5002 17.0122 24.5002 16.8V3.2Z" fill="#FBFF12"/>
<path d="M7.97727 28.0725V36.7998H6.95455L2.19886 29.9475H2.11364V36.7998H1.05682V28.0725H2.07955L6.85227 34.9419H6.9375V28.0725H7.97727ZM12.6999 36.9362C12.0692 36.9362 11.5252 36.797 11.0678 36.5186C10.6133 36.2373 10.2624 35.8453 10.0153 35.3424C9.77095 34.8367 9.64879 34.2487 9.64879 33.5782C9.64879 32.9078 9.77095 32.3168 10.0153 31.8055C10.2624 31.2913 10.6062 30.8907 11.0465 30.6038C11.4897 30.314 12.0067 30.1691 12.5977 30.1691C12.9386 30.1691 13.2752 30.2259 13.6076 30.3396C13.94 30.4532 14.2425 30.6379 14.5153 30.8936C14.788 31.1464 15.0053 31.4816 15.1673 31.8992C15.3292 32.3168 15.4102 32.8311 15.4102 33.4418V33.868H10.3647V32.9987H14.3874C14.3874 32.6293 14.3136 32.2998 14.1658 32.01C14.021 31.7203 13.8136 31.4916 13.5437 31.324C13.2766 31.1563 12.9613 31.0725 12.5977 31.0725C12.1971 31.0725 11.8505 31.172 11.5579 31.3708C11.2681 31.5669 11.0451 31.8225 10.8888 32.1379C10.7326 32.4532 10.6545 32.7913 10.6545 33.1521V33.7316C10.6545 34.2259 10.7397 34.645 10.9102 34.9887C11.0835 35.3296 11.3235 35.5896 11.6303 35.7686C11.9371 35.9447 12.2937 36.0328 12.6999 36.0328C12.9641 36.0328 13.2028 35.9958 13.4158 35.922C13.6317 35.8453 13.8178 35.7316 13.9741 35.5811C14.1303 35.4276 14.2511 35.2373 14.3363 35.01L15.3079 35.2828C15.2056 35.6123 15.0337 35.9021 14.7923 36.1521C14.5508 36.3992 14.2525 36.5924 13.8974 36.7316C13.5423 36.868 13.1431 36.9362 12.6999 36.9362ZM18.4229 36.7998L16.4286 30.2543H17.4854L18.9002 35.2657H18.9684L20.3661 30.2543H21.44L22.8207 35.2487H22.8888L24.3036 30.2543H25.3604L23.3661 36.7998H22.3775L20.9457 31.7714H20.8434L19.4116 36.7998H18.4229ZM31.3263 31.7203L30.4229 31.9759C30.3661 31.8254 30.2823 31.6791 30.1715 31.537C30.0636 31.3921 29.9158 31.2728 29.7283 31.1791C29.5408 31.0853 29.3008 31.0384 29.0082 31.0384C28.6076 31.0384 28.2738 31.1308 28.0067 31.3154C27.7425 31.4972 27.6104 31.7288 27.6104 32.01C27.6104 32.26 27.7013 32.4575 27.8832 32.6024C28.065 32.7472 28.3491 32.868 28.7354 32.9646L29.707 33.2032C30.2923 33.3453 30.7283 33.5626 31.0153 33.8552C31.3022 34.145 31.4457 34.5186 31.4457 34.9759C31.4457 35.3509 31.3377 35.6862 31.1218 35.9816C30.9087 36.2771 30.6104 36.51 30.2269 36.6805C29.8434 36.8509 29.3974 36.9362 28.8888 36.9362C28.2212 36.9362 27.6687 36.7913 27.2312 36.5015C26.7937 36.2117 26.5167 35.7884 26.4002 35.2316L27.3548 34.993C27.4457 35.3453 27.6175 35.6095 27.8704 35.7856C28.1261 35.9617 28.4599 36.0498 28.8718 36.0498C29.3406 36.0498 29.7127 35.9504 29.9883 35.7515C30.2667 35.5498 30.4059 35.3083 30.4059 35.0271C30.4059 34.7998 30.3263 34.6095 30.1673 34.4561C30.0082 34.2998 29.7638 34.1833 29.4343 34.1066L28.3434 33.8509C27.744 33.7089 27.3036 33.4887 27.0224 33.1904C26.744 32.8893 26.6048 32.5129 26.6048 32.0612C26.6048 31.6918 26.7085 31.3651 26.9158 31.0811C27.1261 30.797 27.4116 30.574 27.7724 30.412C28.136 30.2501 28.5479 30.1691 29.0082 30.1691C29.6559 30.1691 30.1644 30.3112 30.5337 30.5953C30.9059 30.8793 31.1701 31.2544 31.3263 31.7203Z" fill="#FBFF12"/>
</g>
<defs>
<clipPath id="clip0_35_2768">
<rect width="33" height="39.8" fill="white"/>
</clipPath>
</defs>
</svg>
