<svg width="40" height="41" viewBox="0 0 40 41" fill="none" xmlns="http://www.w3.org/2000/svg">
<g clip-path="url(#clip0_4602_303)">
<path d="M6.6665 9.33333H33.3332M6.6665 9.33333V0.8C6.6665 0.358173 7.02468 0 7.4665 0H15.7039C15.8949 0 16.0795 0.0683203 16.2245 0.1926L20.4418 3.8074C20.5868 3.93168 20.7714 4 20.9625 4H32.5332C32.975 4 33.3332 4.35817 33.3332 4.8V9.33333H6.6665ZM6.6665 9.33333V20.5333C6.6665 20.9752 7.02468 21.3333 7.4665 21.3333H32.5332C32.975 21.3333 33.3332 20.9752 33.3332 20.5333V9.33333H6.6665Z" stroke="#FBFF12" stroke-width="1.5" stroke-linecap="round" stroke-linejoin="round"/>
<path d="M1.05682 37.3333V28.606H2.11364V36.3958H6.17045V37.3333H1.05682ZM7.67045 37.3333V30.7879H8.67614V37.3333H7.67045ZM8.18182 29.6969C7.9858 29.6969 7.81676 29.6302 7.67472 29.4967C7.53551 29.3631 7.46591 29.2026 7.46591 29.0151C7.46591 28.8276 7.53551 28.6671 7.67472 28.5336C7.81676 28.4001 7.9858 28.3333 8.18182 28.3333C8.37784 28.3333 8.54545 28.4001 8.68466 28.5336C8.8267 28.6671 8.89773 28.8276 8.89773 29.0151C8.89773 29.2026 8.8267 29.3631 8.68466 29.4967C8.54545 29.6302 8.37784 29.6969 8.18182 29.6969ZM10.6545 37.3333V28.606H11.6602V31.8276H11.7454C11.8192 31.714 11.9215 31.5691 12.0522 31.393C12.1857 31.214 12.3761 31.0549 12.6232 30.9157C12.8732 30.7737 13.2113 30.7026 13.6374 30.7026C14.1886 30.7026 14.6744 30.8404 15.0948 31.116C15.5153 31.3916 15.8434 31.7822 16.0792 32.2879C16.315 32.7935 16.4329 33.3901 16.4329 34.0776C16.4329 34.7708 16.315 35.3717 16.0792 35.8802C15.8434 36.3859 15.5167 36.7779 15.0991 37.0563C14.6815 37.3319 14.1999 37.4697 13.6545 37.4697C13.234 37.4697 12.8974 37.4001 12.6445 37.2609C12.3917 37.1188 12.1971 36.9583 12.0607 36.7793C11.9244 36.5975 11.8192 36.4469 11.7454 36.3276H11.6261V37.3333H10.6545ZM11.6431 34.0606C11.6431 34.5549 11.7156 34.991 11.8604 35.3688C12.0053 35.7438 12.217 36.0379 12.4954 36.2509C12.7738 36.4612 13.1147 36.5663 13.5181 36.5663C13.9386 36.5663 14.2894 36.4555 14.5707 36.2339C14.8548 36.0094 15.0678 35.7083 15.2099 35.3305C15.3548 34.9498 15.4272 34.5265 15.4272 34.0606C15.4272 33.6004 15.3562 33.1856 15.2141 32.8163C15.0749 32.4441 14.8633 32.1501 14.5792 31.9342C14.2979 31.7154 13.9442 31.606 13.5181 31.606C13.109 31.606 12.7653 31.7097 12.4869 31.9171C12.2085 32.1217 11.9982 32.4086 11.8562 32.7779C11.7141 33.1444 11.6431 33.5719 11.6431 34.0606ZM17.9712 37.3333V30.7879H18.9428V31.7765H19.011C19.1303 31.4526 19.3462 31.1898 19.6587 30.9881C19.9712 30.7864 20.3235 30.6856 20.7156 30.6856C20.7894 30.6856 20.8817 30.687 20.9925 30.6898C21.1033 30.6927 21.1871 30.6969 21.244 30.7026V31.7254C21.2099 31.7168 21.1317 31.7041 21.0096 31.687C20.8903 31.6671 20.7638 31.6572 20.6303 31.6572C20.3121 31.6572 20.0281 31.7239 19.7781 31.8575C19.5309 31.9881 19.3349 32.17 19.19 32.4029C19.0479 32.633 18.9769 32.8958 18.9769 33.1913V37.3333H17.9712ZM24.3622 37.4867C23.9474 37.4867 23.571 37.4086 23.233 37.2523C22.8949 37.0933 22.6264 36.8646 22.4276 36.5663C22.2287 36.2651 22.1293 35.9015 22.1293 35.4754C22.1293 35.1004 22.2031 34.7964 22.3509 34.5634C22.4986 34.3276 22.696 34.143 22.9432 34.0094C23.1903 33.8759 23.4631 33.7765 23.7614 33.7112C24.0625 33.643 24.3651 33.589 24.669 33.5492C25.0668 33.4981 25.3892 33.4597 25.6364 33.4342C25.8864 33.4058 26.0682 33.3589 26.1818 33.2935C26.2983 33.2282 26.3565 33.1146 26.3565 32.9526V32.9185C26.3565 32.4981 26.2415 32.1714 26.0114 31.9384C25.7841 31.7055 25.4389 31.589 24.9759 31.589C24.4957 31.589 24.1193 31.6941 23.8466 31.9043C23.5739 32.1146 23.3821 32.339 23.2713 32.5776L22.3168 32.2367C22.4872 31.839 22.7145 31.5293 22.9986 31.3077C23.2855 31.0833 23.598 30.9271 23.9361 30.839C24.277 30.7481 24.6122 30.7026 24.9418 30.7026C25.152 30.7026 25.3935 30.7282 25.6662 30.7793C25.9418 30.8276 26.2074 30.9285 26.4631 31.0819C26.7216 31.2353 26.9361 31.4668 27.1065 31.7765C27.277 32.0862 27.3622 32.5009 27.3622 33.0208V37.3333H26.3565V36.4469H26.3054C26.2372 36.589 26.1236 36.741 25.9645 36.9029C25.8054 37.0648 25.5938 37.2026 25.3295 37.3163C25.0653 37.4299 24.7429 37.4867 24.3622 37.4867ZM24.5156 36.5833C24.9134 36.5833 25.2486 36.5052 25.5213 36.3489C25.7969 36.1927 26.0043 35.991 26.1435 35.7438C26.2855 35.4967 26.3565 35.2367 26.3565 34.964V34.0435C26.3139 34.0947 26.2202 34.1416 26.0753 34.1842C25.9332 34.2239 25.7685 34.2594 25.581 34.2907C25.3963 34.3191 25.2159 34.3447 25.0398 34.3674C24.8665 34.3873 24.7259 34.4043 24.6179 34.4185C24.3565 34.4526 24.1122 34.508 23.8849 34.5847C23.6605 34.6586 23.4787 34.7708 23.3395 34.9214C23.2031 35.0691 23.1349 35.2708 23.1349 35.5265C23.1349 35.8759 23.2642 36.1401 23.5227 36.3191C23.7841 36.4952 24.1151 36.5833 24.5156 36.5833ZM29.1978 37.3333V30.7879H30.1694V31.7765H30.2376C30.3569 31.4526 30.5728 31.1898 30.8853 30.9881C31.1978 30.7864 31.5501 30.6856 31.9421 30.6856C32.016 30.6856 32.1083 30.687 32.2191 30.6898C32.3299 30.6927 32.4137 30.6969 32.4705 30.7026V31.7254C32.4364 31.7168 32.3583 31.7041 32.2362 31.687C32.1168 31.6671 31.9904 31.6572 31.8569 31.6572C31.5387 31.6572 31.2546 31.7239 31.0046 31.8575C30.7575 31.9881 30.5614 32.17 30.4165 32.4029C30.2745 32.633 30.2035 32.8958 30.2035 33.1913V37.3333H29.1978ZM34.5096 39.7879C34.3391 39.7879 34.1871 39.7737 34.0536 39.7452C33.9201 39.7197 33.8278 39.6941 33.7766 39.6685L34.0323 38.7822C34.2766 38.8447 34.4925 38.8674 34.68 38.8504C34.8675 38.8333 35.0337 38.7495 35.1786 38.5989C35.3263 38.4512 35.4613 38.2112 35.5835 37.8788L35.771 37.3674L33.3505 30.7879H34.4414L36.2482 36.0038H36.3164L38.1232 30.7879H39.2141L36.4357 38.2879C36.3107 38.6259 36.1559 38.9058 35.9712 39.1273C35.7866 39.3518 35.5721 39.518 35.3278 39.6259C35.0863 39.7339 34.8136 39.7879 34.5096 39.7879Z" fill="#FBFF12"/>
</g>
<defs>
<clipPath id="clip0_4602_303">
<rect width="40" height="40.3333" fill="white"/>
</clipPath>
</defs>
</svg>
