<svg width="52" height="52" viewBox="0 0 52 52" fill="none" xmlns="http://www.w3.org/2000/svg">
<path d="M26 30C28.2092 30 30 28.2092 30 26C30 23.7908 28.2092 22 26 22C23.7908 22 22 23.7908 22 26C22 28.2092 23.7908 30 26 30Z" stroke="#E9E7E7" stroke-width="1.5" stroke-linecap="round" stroke-linejoin="round"/>
<path d="M36.163 23.8609L34.6994 20.3267L36.6665 18.0003L33.9998 15.3337L31.6861 17.3109L28.0769 15.8266L27.2469 12.667H24.6412L23.7986 15.8685L20.2724 17.3549L17.9998 15.3337L15.3332 18.0003L17.271 20.3855L15.8298 23.9287L12.6665 24.667V27.3337L15.868 28.2077L17.3542 31.7333L15.3332 34.0003L17.9998 36.667L20.3881 34.7207L23.8625 36.1501L24.6665 39.3337H27.3332L28.1392 36.1513L31.6733 34.6877C32.2624 35.1087 33.9998 36.667 33.9998 36.667L36.6665 34.0003L34.6877 31.6662L36.1517 28.131L39.333 27.3033L39.3332 24.667L36.163 23.8609Z" stroke="#E9E7E7" stroke-width="1.5" stroke-linecap="round" stroke-linejoin="round"/>
</svg>
