<svg width="32" height="44" viewBox="0 0 32 44" fill="none" xmlns="http://www.w3.org/2000/svg">
<g clip-path="url(#clip0_35_2717)">
<path fill-rule="evenodd" clip-rule="evenodd" d="M24 0C21.3766 0 19.25 2.12666 19.25 4.75C19.25 6.31061 20.0026 7.69544 21.1647 8.56134C18.8922 9.50234 17.189 11.5404 16.7157 14.0151C15.8819 13.3889 14.9478 12.889 13.9418 12.5438C15.6307 11.4628 16.7502 9.57028 16.7502 7.41634C16.7502 4.0566 14.0265 1.33301 10.6668 1.33301C7.3071 1.33301 4.5835 4.05661 4.5835 7.41634C4.5835 9.57028 5.70297 11.4628 7.39184 12.5438C3.43058 13.9034 0.583496 17.6609 0.583496 22.0833V23.4167C0.583496 23.8309 0.919283 24.1667 1.3335 24.1667C1.74771 24.1667 2.0835 23.8309 2.0835 23.4167V22.0833C2.0835 17.3429 5.92639 13.5 10.6668 13.5C15.4073 13.5 19.2502 17.3429 19.2502 22.0833V23.4167C19.2502 23.8309 19.5859 24.1667 20.0002 24.1667C20.4144 24.1667 20.7502 23.8309 20.7502 23.4167V22.0833C20.7502 19.4489 19.7399 17.0505 18.0857 15.2543C18.1717 12.0617 20.7868 9.5 24.0002 9.5C27.2678 9.5 29.9168 12.149 29.9168 15.4167V16.0833C29.9168 16.4975 30.2526 16.8333 30.6668 16.8333C31.081 16.8333 31.4168 16.4975 31.4168 16.0833V15.4167C31.4168 12.3248 29.5248 9.67478 26.8355 8.56125C27.9975 7.69535 28.75 6.31055 28.75 4.75C28.75 2.12666 26.6234 0 24 0ZM20.75 4.75C20.75 2.95507 22.205 1.5 24 1.5C25.795 1.5 27.25 2.95507 27.25 4.75C27.25 6.54493 25.795 8 24 8C22.205 8 20.75 6.54493 20.75 4.75ZM10.6668 2.83301C8.13552 2.83301 6.0835 4.88503 6.0835 7.41634C6.0835 9.9476 8.13553 11.9997 10.6668 11.9997C13.1981 11.9997 15.2502 9.94759 15.2502 7.41634C15.2502 4.88504 13.1981 2.83301 10.6668 2.83301Z" fill="#BBBBBB"/>
<path d="M8.07955 34.167H7.02273C6.96023 33.863 6.85085 33.596 6.6946 33.3659C6.54119 33.1357 6.35369 32.9426 6.1321 32.7863C5.91335 32.6272 5.67045 32.5079 5.40341 32.4284C5.13636 32.3488 4.85795 32.309 4.56818 32.309C4.03977 32.309 3.56108 32.4426 3.1321 32.7096C2.70597 32.9767 2.36648 33.3701 2.11364 33.89C1.86364 34.4099 1.73864 35.0477 1.73864 35.8034C1.73864 36.559 1.86364 37.1968 2.11364 37.7167C2.36648 38.2366 2.70597 38.6301 3.1321 38.8971C3.56108 39.1642 4.03977 39.2977 4.56818 39.2977C4.85795 39.2977 5.13636 39.2579 5.40341 39.1784C5.67045 39.0988 5.91335 38.9809 6.1321 38.8247C6.35369 38.6656 6.54119 38.471 6.6946 38.2409C6.85085 38.0079 6.96023 37.7409 7.02273 37.4397H8.07955C8 37.8857 7.85511 38.2849 7.64489 38.6372C7.43466 38.9894 7.1733 39.2892 6.8608 39.5363C6.5483 39.7806 6.19744 39.9667 5.80824 40.0945C5.42188 40.2224 5.00852 40.2863 4.56818 40.2863C3.82386 40.2863 3.16193 40.1045 2.58239 39.7409C2.00284 39.3772 1.54688 38.8602 1.21449 38.1897C0.882102 37.5193 0.715909 36.7238 0.715909 35.8034C0.715909 34.8829 0.882102 34.0874 1.21449 33.417C1.54688 32.7465 2.00284 32.2295 2.58239 31.8659C3.16193 31.5022 3.82386 31.3204 4.56818 31.3204C5.00852 31.3204 5.42188 31.3843 5.80824 31.5122C6.19744 31.64 6.5483 31.8275 6.8608 32.0747C7.1733 32.319 7.43466 32.6173 7.64489 32.9695C7.85511 33.319 8 33.7181 8.07955 34.167ZM10.6566 31.4397V40.167H9.65092V31.4397H10.6566ZM14.4247 40.3204C14.0099 40.3204 13.6335 40.2423 13.2955 40.086C12.9574 39.9269 12.6889 39.6982 12.4901 39.3999C12.2912 39.0988 12.1918 38.7352 12.1918 38.309C12.1918 37.934 12.2656 37.6301 12.4134 37.3971C12.5611 37.1613 12.7585 36.9767 13.0057 36.8431C13.2528 36.7096 13.5256 36.6102 13.8239 36.5448C14.125 36.4767 14.4276 36.4227 14.7315 36.3829C15.1293 36.3318 15.4517 36.2934 15.6989 36.2678C15.9489 36.2394 16.1307 36.1926 16.2443 36.1272C16.3608 36.0619 16.419 35.9482 16.419 35.7863V35.7522C16.419 35.3318 16.304 35.0051 16.0739 34.7721C15.8466 34.5392 15.5014 34.4227 15.0384 34.4227C14.5582 34.4227 14.1818 34.5278 13.9091 34.738C13.6364 34.9482 13.4446 35.1727 13.3338 35.4113L12.3793 35.0704C12.5497 34.6727 12.777 34.363 13.0611 34.1414C13.348 33.917 13.6605 33.7607 13.9986 33.6727C14.3395 33.5818 14.6747 33.5363 15.0043 33.5363C15.2145 33.5363 15.456 33.5619 15.7287 33.613C16.0043 33.6613 16.2699 33.7622 16.5256 33.9156C16.7841 34.069 16.9986 34.3005 17.169 34.6102C17.3395 34.9198 17.4247 35.3346 17.4247 35.8545V40.167H16.419V39.2806H16.3679C16.2997 39.4227 16.1861 39.5747 16.027 39.7366C15.8679 39.8985 15.6563 40.0363 15.392 40.1499C15.1278 40.2636 14.8054 40.3204 14.4247 40.3204ZM14.5781 39.417C14.9759 39.417 15.3111 39.3389 15.5838 39.1826C15.8594 39.0264 16.0668 38.8247 16.206 38.5775C16.348 38.3303 16.419 38.0704 16.419 37.7977V36.8772C16.3764 36.9284 16.2827 36.9752 16.1378 37.0178C15.9957 37.0576 15.831 37.0931 15.6435 37.1244C15.4588 37.1528 15.2784 37.1784 15.1023 37.2011C14.929 37.221 14.7884 37.238 14.6804 37.2522C14.419 37.2863 14.1747 37.3417 13.9474 37.4184C13.723 37.4923 13.5412 37.6045 13.402 37.7551C13.2656 37.9028 13.1974 38.1045 13.1974 38.3602C13.1974 38.7096 13.3267 38.9738 13.5852 39.1528C13.8466 39.3289 14.1776 39.417 14.5781 39.417ZM20.266 36.2295V40.167H19.2603V33.6215H20.2319V34.6443H20.3171C20.4705 34.3119 20.7035 34.0448 21.016 33.8431C21.3285 33.6386 21.7319 33.5363 22.2262 33.5363C22.6694 33.5363 23.0572 33.6272 23.3896 33.809C23.7219 33.988 23.9805 34.2607 24.1651 34.6272C24.3498 34.9909 24.4421 35.4511 24.4421 36.0079V40.167H23.4364V36.0761C23.4364 35.5619 23.3029 35.1613 23.0359 34.8744C22.7688 34.5846 22.4023 34.4397 21.9364 34.4397C21.6154 34.4397 21.3285 34.5093 21.0756 34.6485C20.8256 34.7877 20.6282 34.9909 20.4833 35.2579C20.3384 35.5249 20.266 35.8488 20.266 36.2295ZM30.9162 35.0874L30.0128 35.3431C29.956 35.1926 29.8722 35.0463 29.7614 34.9042C29.6534 34.7593 29.5057 34.64 29.3182 34.5463C29.1307 34.4525 28.8906 34.4056 28.598 34.4056C28.1974 34.4056 27.8636 34.498 27.5966 34.6826C27.3324 34.8644 27.2003 35.096 27.2003 35.3772C27.2003 35.6272 27.2912 35.8247 27.473 35.9695C27.6548 36.1144 27.9389 36.2352 28.3253 36.3318L29.2969 36.5704C29.8821 36.7124 30.3182 36.9298 30.6051 37.2224C30.892 37.5122 31.0355 37.8857 31.0355 38.3431C31.0355 38.7181 30.9276 39.0534 30.7116 39.3488C30.4986 39.6443 30.2003 39.8772 29.8168 40.0477C29.4332 40.2181 28.9872 40.3034 28.4787 40.3034C27.8111 40.3034 27.2585 40.1585 26.821 39.8687C26.3835 39.5789 26.1065 39.1556 25.9901 38.5988L26.9446 38.3602C27.0355 38.7124 27.2074 38.9767 27.4602 39.1528C27.7159 39.3289 28.0497 39.417 28.4616 39.417C28.9304 39.417 29.3026 39.3176 29.5781 39.1187C29.8565 38.917 29.9957 38.6755 29.9957 38.3943C29.9957 38.167 29.9162 37.9767 29.7571 37.8232C29.598 37.667 29.3537 37.5505 29.0241 37.4738L27.9332 37.2181C27.3338 37.0761 26.8935 36.8559 26.6122 36.5576C26.3338 36.2565 26.1946 35.8801 26.1946 35.4284C26.1946 35.059 26.2983 34.7323 26.5057 34.4482C26.7159 34.1642 27.0014 33.9411 27.3622 33.7792C27.7259 33.6173 28.1378 33.5363 28.598 33.5363C29.2457 33.5363 29.7543 33.6784 30.1236 33.9624C30.4957 34.2465 30.7599 34.6215 30.9162 35.0874Z" fill="#BBBBBB"/>
</g>
<defs>
<clipPath id="clip0_35_2717">
<rect width="32" height="43.1667" fill="white"/>
</clipPath>
</defs>
</svg>
