<svg width="40" height="41" viewBox="0 0 40 41" fill="none" xmlns="http://www.w3.org/2000/svg">
<g clip-path="url(#clip0_35_2720)">
<path d="M6.6665 9.33333H33.3332M6.6665 9.33333V0.8C6.6665 0.358173 7.02468 0 7.4665 0H15.7039C15.8949 0 16.0795 0.0683203 16.2245 0.1926L20.4418 3.8074C20.5868 3.93168 20.7714 4 20.9625 4H32.5332C32.975 4 33.3332 4.35817 33.3332 4.8V9.33333H6.6665ZM6.6665 9.33333V20.5333C6.6665 20.9752 7.02468 21.3333 7.4665 21.3333H32.5332C32.975 21.3333 33.3332 20.9752 33.3332 20.5333V9.33333H6.6665Z" stroke="#BBBBBB" stroke-width="1.5" stroke-linecap="round" stroke-linejoin="round"/>
<path d="M1.05682 37.333V28.6057H2.11364V36.3955H6.17045V37.333H1.05682ZM7.67045 37.333V30.7876H8.67614V37.333H7.67045ZM8.18182 29.6966C7.9858 29.6966 7.81676 29.6299 7.67472 29.4964C7.53551 29.3628 7.46591 29.2023 7.46591 29.0148C7.46591 28.8273 7.53551 28.6668 7.67472 28.5333C7.81676 28.3998 7.9858 28.333 8.18182 28.333C8.37784 28.333 8.54545 28.3998 8.68466 28.5333C8.8267 28.6668 8.89773 28.8273 8.89773 29.0148C8.89773 29.2023 8.8267 29.3628 8.68466 29.4964C8.54545 29.6299 8.37784 29.6966 8.18182 29.6966ZM10.6545 37.333V28.6057H11.6602V31.8273H11.7454C11.8192 31.7137 11.9215 31.5688 12.0522 31.3927C12.1857 31.2137 12.3761 31.0546 12.6232 30.9154C12.8732 30.7733 13.2113 30.7023 13.6374 30.7023C14.1886 30.7023 14.6744 30.8401 15.0948 31.1157C15.5153 31.3912 15.8434 31.7819 16.0792 32.2876C16.315 32.7932 16.4329 33.3898 16.4329 34.0773C16.4329 34.7705 16.315 35.3714 16.0792 35.8799C15.8434 36.3856 15.5167 36.7776 15.0991 37.056C14.6815 37.3316 14.1999 37.4694 13.6545 37.4694C13.234 37.4694 12.8974 37.3998 12.6445 37.2606C12.3917 37.1185 12.1971 36.958 12.0607 36.779C11.9244 36.5972 11.8192 36.4466 11.7454 36.3273H11.6261V37.333H10.6545ZM11.6431 34.0603C11.6431 34.5546 11.7156 34.9907 11.8604 35.3685C12.0053 35.7435 12.217 36.0376 12.4954 36.2506C12.7738 36.4608 13.1147 36.566 13.5181 36.566C13.9386 36.566 14.2894 36.4552 14.5707 36.2336C14.8548 36.0091 15.0678 35.708 15.2099 35.3302C15.3548 34.9495 15.4272 34.5262 15.4272 34.0603C15.4272 33.6001 15.3562 33.1853 15.2141 32.816C15.0749 32.4438 14.8633 32.1498 14.5792 31.9339C14.2979 31.7151 13.9442 31.6057 13.5181 31.6057C13.109 31.6057 12.7653 31.7094 12.4869 31.9168C12.2085 32.1214 11.9982 32.4083 11.8562 32.7776C11.7141 33.1441 11.6431 33.5716 11.6431 34.0603ZM17.9712 37.333V30.7876H18.9428V31.7762H19.011C19.1303 31.4523 19.3462 31.1895 19.6587 30.9878C19.9712 30.7861 20.3235 30.6853 20.7156 30.6853C20.7894 30.6853 20.8817 30.6867 20.9925 30.6895C21.1033 30.6924 21.1871 30.6966 21.244 30.7023V31.7251C21.2099 31.7165 21.1317 31.7037 21.0096 31.6867C20.8903 31.6668 20.7638 31.6569 20.6303 31.6569C20.3121 31.6569 20.0281 31.7236 19.7781 31.8572C19.5309 31.9878 19.3349 32.1697 19.19 32.4026C19.0479 32.6327 18.9769 32.8955 18.9769 33.191V37.333H17.9712ZM24.3622 37.4864C23.9474 37.4864 23.571 37.4083 23.233 37.252C22.8949 37.093 22.6264 36.8643 22.4276 36.566C22.2287 36.2648 22.1293 35.9012 22.1293 35.4751C22.1293 35.1001 22.2031 34.7961 22.3509 34.5631C22.4986 34.3273 22.696 34.1427 22.9432 34.0091C23.1903 33.8756 23.4631 33.7762 23.7614 33.7108C24.0625 33.6427 24.3651 33.5887 24.669 33.5489C25.0668 33.4978 25.3892 33.4594 25.6364 33.4339C25.8864 33.4055 26.0682 33.3586 26.1818 33.2932C26.2983 33.2279 26.3565 33.1143 26.3565 32.9523V32.9182C26.3565 32.4978 26.2415 32.1711 26.0114 31.9381C25.7841 31.7052 25.4389 31.5887 24.9759 31.5887C24.4957 31.5887 24.1193 31.6938 23.8466 31.904C23.5739 32.1143 23.3821 32.3387 23.2713 32.5773L22.3168 32.2364C22.4872 31.8387 22.7145 31.529 22.9986 31.3074C23.2855 31.083 23.598 30.9268 23.9361 30.8387C24.277 30.7478 24.6122 30.7023 24.9418 30.7023C25.152 30.7023 25.3935 30.7279 25.6662 30.779C25.9418 30.8273 26.2074 30.9282 26.4631 31.0816C26.7216 31.235 26.9361 31.4665 27.1065 31.7762C27.277 32.0858 27.3622 32.5006 27.3622 33.0205V37.333H26.3565V36.4466H26.3054C26.2372 36.5887 26.1236 36.7407 25.9645 36.9026C25.8054 37.0645 25.5938 37.2023 25.3295 37.316C25.0653 37.4296 24.7429 37.4864 24.3622 37.4864ZM24.5156 36.583C24.9134 36.583 25.2486 36.5049 25.5213 36.3486C25.7969 36.1924 26.0043 35.9907 26.1435 35.7435C26.2855 35.4964 26.3565 35.2364 26.3565 34.9637V34.0432C26.3139 34.0944 26.2202 34.1412 26.0753 34.1839C25.9332 34.2236 25.7685 34.2591 25.581 34.2904C25.3963 34.3188 25.2159 34.3444 25.0398 34.3671C24.8665 34.387 24.7259 34.404 24.6179 34.4182C24.3565 34.4523 24.1122 34.5077 23.8849 34.5844C23.6605 34.6583 23.4787 34.7705 23.3395 34.9211C23.2031 35.0688 23.1349 35.2705 23.1349 35.5262C23.1349 35.8756 23.2642 36.1398 23.5227 36.3188C23.7841 36.4949 24.1151 36.583 24.5156 36.583ZM29.1978 37.333V30.7876H30.1694V31.7762H30.2376C30.3569 31.4523 30.5728 31.1895 30.8853 30.9878C31.1978 30.7861 31.5501 30.6853 31.9421 30.6853C32.016 30.6853 32.1083 30.6867 32.2191 30.6895C32.3299 30.6924 32.4137 30.6966 32.4705 30.7023V31.7251C32.4364 31.7165 32.3583 31.7037 32.2362 31.6867C32.1168 31.6668 31.9904 31.6569 31.8569 31.6569C31.5387 31.6569 31.2546 31.7236 31.0046 31.8572C30.7575 31.9878 30.5614 32.1697 30.4165 32.4026C30.2745 32.6327 30.2035 32.8955 30.2035 33.191V37.333H29.1978ZM34.5096 39.7876C34.3391 39.7876 34.1871 39.7733 34.0536 39.7449C33.9201 39.7194 33.8278 39.6938 33.7766 39.6682L34.0323 38.7819C34.2766 38.8444 34.4925 38.8671 34.68 38.8501C34.8675 38.833 35.0337 38.7492 35.1786 38.5986C35.3263 38.4509 35.4613 38.2108 35.5835 37.8785L35.771 37.3671L33.3505 30.7876H34.4414L36.2482 36.0035H36.3164L38.1232 30.7876H39.2141L36.4357 38.2876C36.3107 38.6256 36.1559 38.9055 35.9712 39.127C35.7866 39.3515 35.5721 39.5177 35.3278 39.6256C35.0863 39.7336 34.8136 39.7876 34.5096 39.7876Z" fill="#BBBBBB"/>
</g>
<defs>
<clipPath id="clip0_35_2720">
<rect width="40" height="40.3333" fill="white"/>
</clipPath>
</defs>
</svg>
