<svg width="22" height="22" viewBox="0 0 22 22" fill="none" xmlns="http://www.w3.org/2000/svg">
<path d="M17.4173 11L19.2502 12.8333M15.5835 12.8333L17.4173 11L15.5835 12.8333ZM19.2502 9.16663L17.4173 11L19.2502 9.16663ZM17.4173 11L15.5835 9.16663L17.4173 11Z" stroke="#BBBBBB" stroke-width="1.5" stroke-linecap="round" stroke-linejoin="round"/>
<path d="M2.75 12.8333V9.16666C2.75 8.66041 3.16041 8.25 3.66667 8.25H6.13912C6.3201 8.25 6.49702 8.19643 6.64759 8.09604L10.4915 5.53343C11.1007 5.12731 11.9167 5.564 11.9167 6.29614V15.7039C11.9167 16.436 11.1007 16.8727 10.4915 16.4665L6.64759 13.9039C6.49702 13.8035 6.3201 13.75 6.13912 13.75H3.66667C3.16041 13.75 2.75 13.3396 2.75 12.8333Z" stroke="#BBBBBB" stroke-width="1.5"/>
</svg>
