<svg width="34" height="42" viewBox="0 0 34 42" fill="none" xmlns="http://www.w3.org/2000/svg">
<g clip-path="url(#clip0_35_2716)">
<path fill-rule="evenodd" clip-rule="evenodd" d="M16.609 0.110039C16.8491 -0.0366794 17.1511 -0.0366794 17.3912 0.110039L29.3912 7.44337C29.7446 7.65936 29.8561 8.12098 29.6401 8.47442C29.4241 8.82786 28.9625 8.93929 28.609 8.7233L17.0001 1.62896L5.39119 8.7233C5.03775 8.93929 4.57614 8.82786 4.36015 8.47442C4.14415 8.12098 4.25558 7.65936 4.60902 7.44337L16.609 0.110039ZM17.5333 18.084H16.4666C16.0247 18.084 15.6666 17.7259 15.6666 17.284V14.884C15.6666 14.4421 16.0247 14.084 16.4666 14.084H17.5333C17.9751 14.084 18.3333 14.4421 18.3333 14.884V17.284C18.3333 17.7259 17.9751 18.084 17.5333 18.084ZM8.41661 12.75C8.41661 12.3358 8.08083 12 7.66661 12C7.2524 12 6.91661 12.3358 6.91661 12.75V21.2833C6.91661 22.1394 7.61059 22.8333 8.46661 22.8333H25.5333C26.3894 22.8333 27.0833 22.1394 27.0833 21.2833V12.75C27.0833 12.3358 26.7475 12 26.3333 12C25.9191 12 25.5833 12.3358 25.5833 12.75V21.2833C25.5833 21.311 25.5609 21.3333 25.5333 21.3333H8.46661C8.43897 21.3333 8.41661 21.311 8.41661 21.2833V12.75Z" fill="#FBFF12"/>
<path d="M1.05682 38.833V30.1057H2.11364V33.9921H6.76705V30.1057H7.82386V38.833H6.76705V34.9296H2.11364V38.833H1.05682ZM12.4624 38.9694C11.8714 38.9694 11.353 38.8287 10.907 38.5475C10.4638 38.2662 10.1172 37.8728 9.86719 37.3671C9.62003 36.8614 9.49645 36.2705 9.49645 35.5944C9.49645 34.9126 9.62003 34.3174 9.86719 33.8089C10.1172 33.3003 10.4638 32.9055 10.907 32.6242C11.353 32.343 11.8714 32.2023 12.4624 32.2023C13.0533 32.2023 13.5703 32.343 14.0135 32.6242C14.4595 32.9055 14.8061 33.3003 15.0533 33.8089C15.3033 34.3174 15.4283 34.9126 15.4283 35.5944C15.4283 36.2705 15.3033 36.8614 15.0533 37.3671C14.8061 37.8728 14.4595 38.2662 14.0135 38.5475C13.5703 38.8287 13.0533 38.9694 12.4624 38.9694ZM12.4624 38.066C12.9112 38.066 13.2805 37.9509 13.5703 37.7208C13.8601 37.4907 14.0746 37.1881 14.2138 36.8131C14.353 36.4381 14.4226 36.0319 14.4226 35.5944C14.4226 35.1569 14.353 34.7492 14.2138 34.3714C14.0746 33.9935 13.8601 33.6881 13.5703 33.4552C13.2805 33.2222 12.9112 33.1057 12.4624 33.1057C12.0135 33.1057 11.6442 33.2222 11.3544 33.4552C11.0646 33.6881 10.8501 33.9935 10.7109 34.3714C10.5717 34.7492 10.5021 35.1569 10.5021 35.5944C10.5021 36.0319 10.5717 36.4381 10.7109 36.8131C10.8501 37.1881 11.0646 37.4907 11.3544 37.7208C11.6442 37.9509 12.0135 38.066 12.4624 38.066ZM16.9634 38.833V32.2876H17.935V33.3103H18.0202C18.1566 32.9608 18.3768 32.6895 18.6808 32.4964C18.9847 32.3003 19.3498 32.2023 19.7759 32.2023C20.2077 32.2023 20.5671 32.3003 20.854 32.4964C21.1438 32.6895 21.3697 32.9608 21.5316 33.3103H21.5998C21.7674 32.9722 22.0188 32.7037 22.354 32.5049C22.6893 32.3032 23.0913 32.2023 23.56 32.2023C24.1452 32.2023 24.6239 32.3856 24.9961 32.752C25.3683 33.1157 25.5543 33.6824 25.5543 34.4523V38.833H24.5487V34.4523C24.5487 33.9694 24.4165 33.6242 24.1523 33.4168C23.8881 33.2094 23.5771 33.1057 23.2191 33.1057C22.7589 33.1057 22.4023 33.2449 22.1495 33.5233C21.8967 33.7989 21.7702 34.1483 21.7702 34.5716V38.833H20.7475V34.3501C20.7475 33.9779 20.6268 33.6782 20.3853 33.4509C20.1438 33.2208 19.8327 33.1057 19.4521 33.1057C19.1907 33.1057 18.9464 33.1753 18.7191 33.3145C18.4947 33.4537 18.3129 33.6469 18.1737 33.8941C18.0373 34.1384 17.9691 34.4211 17.9691 34.7421V38.833H16.9634ZM30.1374 38.9694C29.5067 38.9694 28.9627 38.8302 28.5053 38.5518C28.0508 38.2705 27.6999 37.8785 27.4528 37.3756C27.2085 36.8699 27.0863 36.2819 27.0863 35.6114C27.0863 34.941 27.2085 34.3501 27.4528 33.8387C27.6999 33.3245 28.0437 32.9239 28.484 32.637C28.9272 32.3472 29.4442 32.2023 30.0352 32.2023C30.3761 32.2023 30.7127 32.2591 31.0451 32.3728C31.3775 32.4864 31.68 32.6711 31.9528 32.9268C32.2255 33.1796 32.4428 33.5148 32.6048 33.9324C32.7667 34.3501 32.8477 34.8643 32.8477 35.4751V35.9012H27.8022V35.0319H31.8249C31.8249 34.6626 31.7511 34.333 31.6033 34.0432C31.4585 33.7535 31.2511 33.5248 30.9812 33.3572C30.7141 33.1895 30.3988 33.1057 30.0352 33.1057C29.6346 33.1057 29.288 33.2052 28.9954 33.404C28.7056 33.6001 28.4826 33.8557 28.3263 34.1711C28.1701 34.4864 28.092 34.8245 28.092 35.1853V35.7648C28.092 36.2591 28.1772 36.6782 28.3477 37.0219C28.521 37.3628 28.761 37.6228 29.0678 37.8018C29.3746 37.9779 29.7312 38.066 30.1374 38.066C30.4016 38.066 30.6403 38.029 30.8533 37.9552C31.0692 37.8785 31.2553 37.7648 31.4116 37.6143C31.5678 37.4608 31.6886 37.2705 31.7738 37.0432L32.7454 37.316C32.6431 37.6455 32.4712 37.9353 32.2298 38.1853C31.9883 38.4324 31.69 38.6256 31.3349 38.7648C30.9798 38.9012 30.5806 38.9694 30.1374 38.9694Z" fill="#FBFF12"/>
</g>
<defs>
<clipPath id="clip0_35_2716">
<rect width="34" height="41.8333" fill="white"/>
</clipPath>
</defs>
</svg>
