<svg width="36" height="32" viewBox="0 0 36 32" fill="none" xmlns="http://www.w3.org/2000/svg">
<path fill-rule="evenodd" clip-rule="evenodd" d="M16.0003 1.91699C8.22231 1.91699 1.91699 8.22231 1.91699 16.0003C1.91699 18.4641 2.5503 20.7821 3.66344 22.7982L2.59633 28.5297C2.55108 28.7728 2.62851 29.0225 2.80333 29.1973C2.97814 29.3721 3.22788 29.4496 3.47093 29.4043L9.20247 28.3372C11.2186 29.4503 13.5366 30.0837 16.0003 30.0837C23.7783 30.0837 30.0837 23.7783 30.0837 16.0003C30.0837 8.22231 23.7783 1.91699 16.0003 1.91699ZM3.41699 16.0003C3.41699 9.05074 9.05074 3.41699 16.0003 3.41699C22.9498 3.41699 28.5837 9.05074 28.5837 16.0003C28.5837 22.9498 22.9498 28.5837 16.0003 28.5837C13.7072 28.5837 11.5593 27.9709 9.70919 26.9007C9.55424 26.8111 9.37236 26.7798 9.19638 26.8126L4.27108 27.7296L5.18808 22.8043C5.22085 22.6283 5.18959 22.4464 5.09996 22.2915C4.02974 20.4413 3.41699 18.2935 3.41699 16.0003ZM9.91699 13.333C9.91699 12.9188 10.2528 12.583 10.667 12.583H16.0003H21.3337C21.7479 12.583 22.0837 12.9188 22.0837 13.333C22.0837 13.7472 21.7479 14.083 21.3337 14.083H16.0003H10.667C10.2528 14.083 9.91699 13.7472 9.91699 13.333ZM9.91699 18.667C9.91699 18.2528 10.2528 17.917 10.667 17.917H13.3337H16.0003C16.4145 17.917 16.7503 18.2528 16.7503 18.667C16.7503 19.0812 16.4145 19.417 16.0003 19.417H13.3337H10.667C10.2528 19.417 9.91699 19.0812 9.91699 18.667Z" fill="#BBBBBB"/>
<circle cx="27" cy="6" r="3" fill="#FBFF12"/>
</svg>
