<svg width="22" height="22" viewBox="0 0 22 22" fill="none" xmlns="http://www.w3.org/2000/svg">
<path d="M16.9585 6.875C16.9585 6.875 18.3335 8.25 18.3335 10.5417C18.3335 12.8333 16.9585 14.2083 16.9585 14.2083" stroke="#BBBBBB" stroke-width="1.5" stroke-linecap="round" stroke-linejoin="round"/>
<path d="M3.6665 12.8333V9.16666C3.6665 8.66041 4.07691 8.25 4.58317 8.25H7.05562C7.2366 8.25 7.41353 8.19643 7.5641 8.09604L11.408 5.53343C12.0172 5.12731 12.8332 5.564 12.8332 6.29614V15.7039C12.8332 16.436 12.0172 16.8727 11.408 16.4665L7.5641 13.9039C7.41353 13.8035 7.2366 13.75 7.05562 13.75H4.58317C4.07691 13.75 3.6665 13.3396 3.6665 12.8333Z" stroke="#BBBBBB" stroke-width="1.5"/>
</svg>
